<mxfile host="Electron" modified="2023-07-14T21:16:22.548Z" agent="Mozilla/5.0 (Windows NT 10.0; Win64; x64) AppleWebKit/537.36 (KHTML, like Gecko) draw.io/21.6.1 Chrome/112.0.5615.204 Electron/24.6.1 Safari/537.36" etag="w151d9kSUdBg5kS9DxsL" version="21.6.1" type="device">
  <diagram name="Page-1" id="SDdgka3PywcGcHc0HapG">
    <mxGraphModel dx="1434" dy="3175" grid="1" gridSize="10" guides="1" tooltips="1" connect="1" arrows="1" fold="1" page="1" pageScale="1" pageWidth="3300" pageHeight="2339" math="0" shadow="0">
      <root>
        <mxCell id="0" />
        <mxCell id="1" parent="0" />
        <mxCell id="kLNVyJrnfXW6X7ckvjcb-1" value="&lt;font style=&quot;font-size: 28px;&quot;&gt;State&lt;/font&gt;" style="rounded=0;whiteSpace=wrap;html=1;fillColor=#1ba1e2;fontColor=#ffffff;strokeColor=#006EAF;" vertex="1" parent="1">
          <mxGeometry x="630" y="-2240" width="120" height="60" as="geometry" />
        </mxCell>
        <mxCell id="kLNVyJrnfXW6X7ckvjcb-2" value="&lt;font style=&quot;font-size: 28px;&quot;&gt;SubState 1&lt;/font&gt;" style="rounded=0;whiteSpace=wrap;html=1;" vertex="1" parent="1">
          <mxGeometry x="330" y="-1960" width="150" height="60" as="geometry" />
        </mxCell>
        <mxCell id="kLNVyJrnfXW6X7ckvjcb-5" value="" style="endArrow=classic;html=1;rounded=0;entryX=0.5;entryY=0;entryDx=0;entryDy=0;exitX=0.45;exitY=1.017;exitDx=0;exitDy=0;exitPerimeter=0;" edge="1" parent="1" source="kLNVyJrnfXW6X7ckvjcb-1" target="kLNVyJrnfXW6X7ckvjcb-2">
          <mxGeometry width="50" height="50" relative="1" as="geometry">
            <mxPoint x="700" y="-2000" as="sourcePoint" />
            <mxPoint x="750" y="-2050" as="targetPoint" />
          </mxGeometry>
        </mxCell>
        <mxCell id="kLNVyJrnfXW6X7ckvjcb-6" value="" style="endArrow=classic;html=1;rounded=0;entryX=0.5;entryY=0;entryDx=0;entryDy=0;exitX=0.5;exitY=1;exitDx=0;exitDy=0;" edge="1" parent="1" source="kLNVyJrnfXW6X7ckvjcb-1">
          <mxGeometry width="50" height="50" relative="1" as="geometry">
            <mxPoint x="694" y="-2169" as="sourcePoint" />
            <mxPoint x="690" y="-1970" as="targetPoint" />
          </mxGeometry>
        </mxCell>
        <mxCell id="kLNVyJrnfXW6X7ckvjcb-7" value="" style="endArrow=classic;html=1;rounded=0;entryX=0.5;entryY=0;entryDx=0;entryDy=0;exitX=0.5;exitY=1;exitDx=0;exitDy=0;" edge="1" parent="1" source="kLNVyJrnfXW6X7ckvjcb-1">
          <mxGeometry width="50" height="50" relative="1" as="geometry">
            <mxPoint x="700" y="-2180" as="sourcePoint" />
            <mxPoint x="940" y="-1970" as="targetPoint" />
          </mxGeometry>
        </mxCell>
        <mxCell id="kLNVyJrnfXW6X7ckvjcb-8" value="&lt;font style=&quot;font-size: 28px;&quot;&gt;SubState 1&lt;/font&gt;" style="rounded=0;whiteSpace=wrap;html=1;fillColor=#0050ef;strokeColor=#001DBC;fontColor=#ffffff;" vertex="1" parent="1">
          <mxGeometry x="330" y="-1960" width="150" height="60" as="geometry" />
        </mxCell>
        <mxCell id="kLNVyJrnfXW6X7ckvjcb-9" value="&lt;font style=&quot;font-size: 28px;&quot;&gt;SubState 2&lt;/font&gt;" style="rounded=0;whiteSpace=wrap;html=1;fillColor=#0050ef;fontColor=#ffffff;strokeColor=#001DBC;" vertex="1" parent="1">
          <mxGeometry x="615" y="-1960" width="150" height="60" as="geometry" />
        </mxCell>
        <mxCell id="kLNVyJrnfXW6X7ckvjcb-10" value="&lt;font style=&quot;font-size: 28px;&quot;&gt;SubState 3&lt;/font&gt;" style="rounded=0;whiteSpace=wrap;html=1;fillColor=#0050ef;fontColor=#ffffff;strokeColor=#001DBC;" vertex="1" parent="1">
          <mxGeometry x="870" y="-1960" width="150" height="60" as="geometry" />
        </mxCell>
        <mxCell id="kLNVyJrnfXW6X7ckvjcb-11" value="&lt;font style=&quot;font-size: 28px;&quot;&gt;Slice 1&lt;/font&gt;" style="rounded=0;whiteSpace=wrap;html=1;fillColor=#d80073;strokeColor=#A50040;fontColor=#ffffff;" vertex="1" parent="1">
          <mxGeometry x="330" y="-1810" width="150" height="60" as="geometry" />
        </mxCell>
        <mxCell id="kLNVyJrnfXW6X7ckvjcb-12" value="&lt;font style=&quot;font-size: 28px;&quot;&gt;Slice 2&lt;/font&gt;" style="rounded=0;whiteSpace=wrap;html=1;fillColor=#d80073;strokeColor=#A50040;fontColor=#ffffff;" vertex="1" parent="1">
          <mxGeometry x="610" y="-1810" width="150" height="60" as="geometry" />
        </mxCell>
        <mxCell id="kLNVyJrnfXW6X7ckvjcb-13" value="&lt;font style=&quot;font-size: 28px;&quot;&gt;Slice 3&lt;/font&gt;" style="rounded=0;whiteSpace=wrap;html=1;fillColor=#d80073;strokeColor=#A50040;fontColor=#ffffff;" vertex="1" parent="1">
          <mxGeometry x="860" y="-1810" width="150" height="60" as="geometry" />
        </mxCell>
        <mxCell id="kLNVyJrnfXW6X7ckvjcb-14" value="" style="endArrow=classic;html=1;rounded=0;exitX=0.5;exitY=1;exitDx=0;exitDy=0;entryX=0.5;entryY=0;entryDx=0;entryDy=0;" edge="1" parent="1" source="kLNVyJrnfXW6X7ckvjcb-8" target="kLNVyJrnfXW6X7ckvjcb-11">
          <mxGeometry width="50" height="50" relative="1" as="geometry">
            <mxPoint x="700" y="-1800" as="sourcePoint" />
            <mxPoint x="520" y="-1830" as="targetPoint" />
          </mxGeometry>
        </mxCell>
        <mxCell id="kLNVyJrnfXW6X7ckvjcb-15" value="" style="endArrow=classic;html=1;rounded=0;exitX=0.5;exitY=1;exitDx=0;exitDy=0;entryX=0.5;entryY=0;entryDx=0;entryDy=0;" edge="1" parent="1">
          <mxGeometry width="50" height="50" relative="1" as="geometry">
            <mxPoint x="689.5" y="-1900" as="sourcePoint" />
            <mxPoint x="689.5" y="-1810" as="targetPoint" />
          </mxGeometry>
        </mxCell>
        <mxCell id="kLNVyJrnfXW6X7ckvjcb-16" value="" style="endArrow=classic;html=1;rounded=0;exitX=0.5;exitY=1;exitDx=0;exitDy=0;entryX=0.5;entryY=0;entryDx=0;entryDy=0;" edge="1" parent="1">
          <mxGeometry width="50" height="50" relative="1" as="geometry">
            <mxPoint x="944.5" y="-1900" as="sourcePoint" />
            <mxPoint x="944.5" y="-1810" as="targetPoint" />
          </mxGeometry>
        </mxCell>
        <mxCell id="kLNVyJrnfXW6X7ckvjcb-19" value="&lt;font style=&quot;font-size: 28px;&quot;&gt;Reducer 1&lt;/font&gt;" style="rounded=0;whiteSpace=wrap;html=1;fillColor=#008a00;strokeColor=#005700;fontColor=#ffffff;" vertex="1" parent="1">
          <mxGeometry x="330" y="-1661" width="150" height="60" as="geometry" />
        </mxCell>
        <mxCell id="kLNVyJrnfXW6X7ckvjcb-20" value="&lt;font style=&quot;font-size: 28px;&quot;&gt;Reducer 2&lt;/font&gt;" style="rounded=0;whiteSpace=wrap;html=1;fillColor=#008a00;strokeColor=#005700;fontColor=#ffffff;" vertex="1" parent="1">
          <mxGeometry x="610" y="-1661" width="150" height="60" as="geometry" />
        </mxCell>
        <mxCell id="kLNVyJrnfXW6X7ckvjcb-21" value="&lt;font style=&quot;font-size: 28px;&quot;&gt;Reducer 3&lt;/font&gt;" style="rounded=0;whiteSpace=wrap;html=1;fillColor=#008a00;strokeColor=#005700;fontColor=#ffffff;" vertex="1" parent="1">
          <mxGeometry x="860" y="-1661" width="150" height="60" as="geometry" />
        </mxCell>
        <mxCell id="kLNVyJrnfXW6X7ckvjcb-22" value="" style="endArrow=classic;html=1;rounded=0;exitX=0.5;exitY=1;exitDx=0;exitDy=0;entryX=0.5;entryY=0;entryDx=0;entryDy=0;" edge="1" parent="1">
          <mxGeometry width="50" height="50" relative="1" as="geometry">
            <mxPoint x="404.5" y="-1751" as="sourcePoint" />
            <mxPoint x="404.5" y="-1661" as="targetPoint" />
          </mxGeometry>
        </mxCell>
        <mxCell id="kLNVyJrnfXW6X7ckvjcb-23" value="" style="endArrow=classic;html=1;rounded=0;exitX=0.5;exitY=1;exitDx=0;exitDy=0;entryX=0.5;entryY=0;entryDx=0;entryDy=0;" edge="1" parent="1">
          <mxGeometry width="50" height="50" relative="1" as="geometry">
            <mxPoint x="689.5" y="-1753" as="sourcePoint" />
            <mxPoint x="689.5" y="-1663" as="targetPoint" />
          </mxGeometry>
        </mxCell>
        <mxCell id="kLNVyJrnfXW6X7ckvjcb-24" value="" style="endArrow=classic;html=1;rounded=0;exitX=0.5;exitY=1;exitDx=0;exitDy=0;entryX=0.5;entryY=0;entryDx=0;entryDy=0;" edge="1" parent="1">
          <mxGeometry width="50" height="50" relative="1" as="geometry">
            <mxPoint x="944.5" y="-1750" as="sourcePoint" />
            <mxPoint x="944.5" y="-1660" as="targetPoint" />
          </mxGeometry>
        </mxCell>
        <mxCell id="kLNVyJrnfXW6X7ckvjcb-25" value="&lt;font style=&quot;font-size: 29px;&quot;&gt;CombineReducer&lt;/font&gt;" style="rounded=0;whiteSpace=wrap;html=1;" vertex="1" parent="1">
          <mxGeometry x="505" y="-1455" width="370" height="110" as="geometry" />
        </mxCell>
        <mxCell id="kLNVyJrnfXW6X7ckvjcb-26" value="" style="endArrow=classic;html=1;rounded=0;exitX=0.5;exitY=1;exitDx=0;exitDy=0;entryX=0.5;entryY=0;entryDx=0;entryDy=0;" edge="1" parent="1" source="kLNVyJrnfXW6X7ckvjcb-19" target="kLNVyJrnfXW6X7ckvjcb-25">
          <mxGeometry width="50" height="50" relative="1" as="geometry">
            <mxPoint x="700" y="-1500" as="sourcePoint" />
            <mxPoint x="750" y="-1550" as="targetPoint" />
          </mxGeometry>
        </mxCell>
        <mxCell id="kLNVyJrnfXW6X7ckvjcb-27" value="" style="endArrow=classic;html=1;rounded=0;" edge="1" parent="1">
          <mxGeometry width="50" height="50" relative="1" as="geometry">
            <mxPoint x="700" y="-1600" as="sourcePoint" />
            <mxPoint x="700" y="-1460" as="targetPoint" />
          </mxGeometry>
        </mxCell>
        <mxCell id="kLNVyJrnfXW6X7ckvjcb-28" value="" style="endArrow=classic;html=1;rounded=0;exitX=0.547;exitY=0.983;exitDx=0;exitDy=0;exitPerimeter=0;entryX=0.562;entryY=-0.018;entryDx=0;entryDy=0;entryPerimeter=0;" edge="1" parent="1" source="kLNVyJrnfXW6X7ckvjcb-21" target="kLNVyJrnfXW6X7ckvjcb-25">
          <mxGeometry width="50" height="50" relative="1" as="geometry">
            <mxPoint x="415" y="-1591" as="sourcePoint" />
            <mxPoint x="720" y="-1460" as="targetPoint" />
          </mxGeometry>
        </mxCell>
        <mxCell id="kLNVyJrnfXW6X7ckvjcb-29" value="" style="endArrow=classic;html=1;rounded=0;entryX=0;entryY=0.5;entryDx=0;entryDy=0;" edge="1" parent="1" target="kLNVyJrnfXW6X7ckvjcb-33">
          <mxGeometry width="50" height="50" relative="1" as="geometry">
            <mxPoint x="270" y="-1400" as="sourcePoint" />
            <mxPoint x="380" y="-960" as="targetPoint" />
          </mxGeometry>
        </mxCell>
        <mxCell id="kLNVyJrnfXW6X7ckvjcb-30" value="&lt;font style=&quot;font-size: 21px;&quot;&gt;Redux&lt;/font&gt;" style="ellipse;whiteSpace=wrap;html=1;aspect=fixed;fillColor=#fa6800;fontColor=#000000;strokeColor=#C73500;" vertex="1" parent="1">
          <mxGeometry x="190" y="-1440" width="80" height="80" as="geometry" />
        </mxCell>
        <mxCell id="kLNVyJrnfXW6X7ckvjcb-31" value="&lt;font style=&quot;font-size: 29px;&quot;&gt;RootReducer&lt;/font&gt;" style="rounded=0;whiteSpace=wrap;html=1;" vertex="1" parent="1">
          <mxGeometry x="500" y="-1240" width="370" height="110" as="geometry" />
        </mxCell>
        <mxCell id="kLNVyJrnfXW6X7ckvjcb-32" value="" style="endArrow=classic;html=1;rounded=0;exitX=0.5;exitY=1;exitDx=0;exitDy=0;" edge="1" parent="1" source="kLNVyJrnfXW6X7ckvjcb-25">
          <mxGeometry width="50" height="50" relative="1" as="geometry">
            <mxPoint x="690" y="-1330" as="sourcePoint" />
            <mxPoint x="690" y="-1250" as="targetPoint" />
          </mxGeometry>
        </mxCell>
        <mxCell id="kLNVyJrnfXW6X7ckvjcb-33" value="&lt;font style=&quot;font-size: 29px;&quot;&gt;CreateStore(RootReducer,_,enhanser)&lt;br&gt;CreateStore(RootReducer, Middelwares)&lt;br&gt;&lt;/font&gt;" style="rounded=0;whiteSpace=wrap;html=1;" vertex="1" parent="1">
          <mxGeometry x="409" y="-1010" width="560" height="110" as="geometry" />
        </mxCell>
        <mxCell id="kLNVyJrnfXW6X7ckvjcb-34" value="" style="endArrow=classic;html=1;rounded=0;exitX=1;exitY=0.5;exitDx=0;exitDy=0;" edge="1" parent="1">
          <mxGeometry width="50" height="50" relative="1" as="geometry">
            <mxPoint x="269" y="-1403" as="sourcePoint" />
            <mxPoint x="580" y="-1400" as="targetPoint" />
          </mxGeometry>
        </mxCell>
        <mxCell id="kLNVyJrnfXW6X7ckvjcb-36" value="" style="endArrow=classic;html=1;rounded=0;exitX=0.481;exitY=1.009;exitDx=0;exitDy=0;exitPerimeter=0;" edge="1" parent="1">
          <mxGeometry width="50" height="50" relative="1" as="geometry">
            <mxPoint x="687.9699999999998" y="-1129.01" as="sourcePoint" />
            <mxPoint x="688" y="-1020" as="targetPoint" />
          </mxGeometry>
        </mxCell>
        <mxCell id="kLNVyJrnfXW6X7ckvjcb-37" value="" style="endArrow=classic;html=1;rounded=0;exitX=0.481;exitY=1.009;exitDx=0;exitDy=0;exitPerimeter=0;" edge="1" parent="1">
          <mxGeometry width="50" height="50" relative="1" as="geometry">
            <mxPoint x="684.4999999999998" y="-900" as="sourcePoint" />
            <mxPoint x="684.53" y="-790.99" as="targetPoint" />
          </mxGeometry>
        </mxCell>
        <mxCell id="kLNVyJrnfXW6X7ckvjcb-38" value="&lt;font style=&quot;font-size: 21px;&quot;&gt;Store&lt;/font&gt;" style="ellipse;whiteSpace=wrap;html=1;aspect=fixed;fillColor=#e51400;fontColor=#ffffff;strokeColor=#B20000;" vertex="1" parent="1">
          <mxGeometry x="645" y="-790" width="80" height="80" as="geometry" />
        </mxCell>
        <mxCell id="kLNVyJrnfXW6X7ckvjcb-39" value="" style="endArrow=classic;html=1;rounded=0;entryX=0;entryY=0.5;entryDx=0;entryDy=0;" edge="1" parent="1">
          <mxGeometry width="50" height="50" relative="1" as="geometry">
            <mxPoint x="350" y="-700" as="sourcePoint" />
            <mxPoint x="630" y="-750" as="targetPoint" />
          </mxGeometry>
        </mxCell>
        <mxCell id="kLNVyJrnfXW6X7ckvjcb-40" value="&lt;font style=&quot;font-size: 28px;&quot;&gt;Store to share between components&lt;br&gt;it allow us to dispatch actions on the state&lt;/font&gt;" style="rounded=0;whiteSpace=wrap;html=1;" vertex="1" parent="1">
          <mxGeometry x="30" y="-770" width="290" height="160" as="geometry" />
        </mxCell>
      </root>
    </mxGraphModel>
  </diagram>
</mxfile>
